<?xml version="1.0" encoding="UTF-8" standalone="no"?>
<svg
   data-name="Layer 1"
   width="1077.38187"
   height="752.8614"
   viewBox="0 0 1077.38187 752.8614"
   version="1.1"
   id="svg62"
   sodipodi:docname="student.svg"
   inkscape:version="1.1 (c68e22c387, 2021-05-23)"
   xmlns:inkscape="http://www.inkscape.org/namespaces/inkscape"
   xmlns:sodipodi="http://sodipodi.sourceforge.net/DTD/sodipodi-0.dtd"
   xmlns="http://www.w3.org/2000/svg"
   xmlns:svg="http://www.w3.org/2000/svg"
   xmlns:rdf="http://www.w3.org/1999/02/22-rdf-syntax-ns#"
   xmlns:cc="http://creativecommons.org/ns#"
   xmlns:dc="http://purl.org/dc/elements/1.1/">
  <defs
     id="defs66" />
  <sodipodi:namedview
     id="namedview64"
     pagecolor="#ffffff"
     bordercolor="#666666"
     borderopacity="1.0"
     inkscape:pageshadow="2"
     inkscape:pageopacity="0.0"
     inkscape:pagecheckerboard="0"
     showgrid="false"
     inkscape:zoom="2.4546351"
     inkscape:cx="902.57815"
     inkscape:cy="245.454"
     inkscape:window-width="1366"
     inkscape:window-height="705"
     inkscape:window-x="-8"
     inkscape:window-y="-8"
     inkscape:window-maximized="1"
     inkscape:current-layer="svg62" />
  <title
     id="title2">learning</title>
  <ellipse
     cx="462.8768"
     cy="653.11499"
     rx="412.17648"
     ry="20.835295"
     fill="#3f3d56"
     id="ellipse4"
     style="stroke-width:0.905882;fill:#ececec;opacity:0.49593496" />
  <ellipse
     cx="865.39508"
     cy="688.56995"
     rx="161.28645"
     ry="8.1529408"
     fill="#3f3d56"
     id="ellipse6"
     style="stroke-width:0.905882;fill:#ececec;opacity:0.49593496" />
  <path
     d="m 805.37438,464.30277 14.47147,-10.05899 29.99316,-38.6068 a 5.2568353,5.2568353 0 0 0 -0.9262,-7.37633 v 0 a 5.2568353,5.2568353 0 0 0 -7.37633,0.9262 l -29.99316,38.60681 z"
     fill="#2f2e41"
     id="path10"
     style="stroke-width:0.905882" />
  <path
     d="m 934.54998,97.289575 c 0,0 -18.20003,-16.317269 -42.67593,14.434505 -24.4759,30.75177 -62.75871,45.81385 -71.54493,57.73801 0,0 36.40005,-15.0621 48.95179,-21.33796 12.55174,-6.27585 11.92413,-5.0207 11.92413,-5.0207 0,0 -16.94482,11.92419 -20.08276,23.84832 -3.13794,11.92413 -0.62759,21.96554 -6.27587,33.8897 -5.64829,11.92416 107.94494,8.15863 107.94494,8.15863 0,0 11.29657,-19.4552 8.15863,-39.53799 -3.13794,-20.08279 -1.25513,-69.66217 -36.4,-72.172515 z"
     fill="#2f2e41"
     id="path12"
     style="stroke-width:0.905882" />
  <path
     d="m 898.77751,145.61379 c 0,0 4.39311,30.75176 -14.4345,37.65522 -18.82762,6.90345 -11.92413,16.31727 -11.92413,16.31727 l 28.24141,13.80691 30.12422,-9.4138 10.04139,-15.06211 c 0,0 -16.31727,-3.76551 -11.92413,-15.0621 4.39314,-11.29659 5.64829,-15.06211 5.64829,-15.06211 z"
     fill="#ffb9b9"
     id="path14"
     style="stroke-width:0.905882" />
  <path
     d="m 898.77751,145.61379 c 0,0 4.39311,30.75176 -14.4345,37.65522 -18.82762,6.90345 -11.92413,16.31727 -11.92413,16.31727 l 28.24141,13.80691 30.12422,-9.4138 10.04139,-15.06211 c 0,0 -16.31727,-3.76551 -11.92413,-15.0621 4.39314,-11.29659 5.64829,-15.06211 5.64829,-15.06211 z"
     opacity="0.1"
     id="path16"
     style="stroke-width:0.905882" />
  <path
     d="m 977.85348,233.47598 c 0,0 -4.3931,57.73801 -3.13797,60.24837 1.25512,2.51035 0,89.74495 0,89.74495 0,0 8.78621,47.06904 -2.51036,49.57938 -11.29657,2.51035 -8.78621,-52.71731 -8.78621,-52.71731 l -11.29658,-72.80011 1.25518,-72.17255 z"
     fill="#ffb9b9"
     id="path18"
     style="stroke-width:0.905882" />
  <path
     d="m 977.85348,233.47598 c 0,0 -4.3931,57.73801 -3.13797,60.24837 1.25512,2.51035 0,89.74495 0,89.74495 0,0 8.78621,47.06904 -2.51036,49.57938 -11.29657,2.51035 -8.78621,-52.71731 -8.78621,-52.71731 l -11.29658,-72.80011 1.25518,-72.17255 z"
     opacity="0.1"
     id="path20"
     style="stroke-width:0.905882" />
  <path
     d="m 855.47399,407.31761 c 0,0 -20.71037,78.44839 -20.08278,116.7312 0.62758,38.28282 8.78622,91.62773 8.78622,91.62773 0,0 1.25518,23.22072 -0.62759,25.73107 -1.88277,2.51035 9.41381,13.17933 9.41381,13.17933 l 11.92413,-6.90346 4.3931,-5.0207 v -4.39313 c 0,0 -6.90346,-21.33796 -1.25517,-38.28281 5.64828,-16.94486 8.78623,-59.62078 3.13798,-72.80011 L 910.07405,411.7107 Z"
     fill="#ffb9b9"
     id="path22"
     style="stroke-width:0.905882" />
  <path
     d="m 854.21882,644.54554 c 0,0 -7.53104,-9.4138 -12.55174,-6.27587 -5.0207,3.13793 -13.17933,24.4759 -13.17933,24.4759 0,0 -28.24142,26.98624 -8.15863,28.24142 20.08279,1.25518 28.869,-5.64829 31.37936,-10.66898 2.51035,-5.02069 25.73107,-18.20003 25.73107,-18.20003 0,0 -2.51036,-23.84831 -6.27587,-24.4759 -3.76552,-0.62758 -9.41381,9.41381 -9.41381,9.41381 z"
     fill="#2f2e41"
     id="path24"
     style="stroke-width:0.905882" />
  <path
     d="m 923.88099,412.33831 v 77.8208 a 240.61718,240.61718 0 0 0 1.88276,28.24142 c 1.88276,13.80692 -10.66897,116.73121 -10.66897,116.73121 l 1.25517,18.20002 15.68967,-1.25517 1.88276,-15.68968 22.59314,-69.03457 c 0,0 7.53105,-42.04835 3.76553,-57.73802 -3.76552,-15.68967 19.4552,-116.10362 19.4552,-116.10362 z"
     fill="#ffb9b9"
     id="path26"
     style="stroke-width:0.905882" />
  <path
     d="m 911.32927,648.93865 4.64804,-1.01051 c 0,0 3.51059,-7.77571 7.9037,-5.89294 a 47.377312,47.377312 0 0 1 8.7355,5.23419 l 1.93349,3.55196 c 0,0 4.3931,9.4138 10.04138,15.68967 5.64829,6.27588 11.92413,20.0828 2.51036,21.33797 -9.41378,1.25517 -21.96556,1.88276 -25.73107,-1.25517 -3.76552,-3.13793 -1.25518,-8.15864 -5.0207,-9.41381 -3.76552,-1.25517 -6.90346,-5.0207 -6.27587,-6.27587 0.62758,-1.25518 1.25517,-21.96549 1.25517,-21.96549 z"
     fill="#2f2e41"
     id="path28"
     style="stroke-width:0.905882" />
  <circle
     cx="923.88098"
     cy="139.33791"
     r="30.124186"
     fill="#ffb9b9"
     id="circle30"
     style="stroke-width:0.905882" />
  <path
     d="m 871.16368,188.28971 8.2898,-2.89416 c 0,0 -3.26911,5.40449 14.30333,8.54247 17.57244,3.13797 35.77072,4.24887 43.93022,-6.0342 0,0 3.13882,-1.49685 7.53192,2.89627 4.39311,4.39311 6.90346,3.13797 6.90346,3.13797 l -3.13793,16.31727 -6.27587,30.12421 -8.15863,22.59315 -23.22073,-5.0207 -25.10349,-18.20003 -9.4138,-24.47601 v -22.59313 z"
     fill="#f9a826"
     id="path32"
     style="stroke-width:0.905882;fill:#ffb380;fill-opacity:1" />
  <path
     d="m 947.72931,197.07596 6.27587,-4.39311 c 0,0 21.33796,3.76551 22.59313,13.80691 l -16.31726,31.37936 a 35.724965,35.724965 0 0 1 -0.6276,26.98623 c -6.27587,14.4345 -5.64827,17.57245 -5.64827,17.57245 l -4.39311,18.82761 -79.70357,6.27587 c 0,0 -3.13797,-7.53104 -4.39311,-8.78622 -1.25513,-1.25519 -1.25517,-5.64829 0,-5.64829 1.25517,0 0,-1.88276 -1.25517,-3.76552 -1.25517,-1.88276 -1.88277,-2.51035 0,-5.0207 1.88277,-2.51034 -3.13798,-25.10348 -3.13798,-25.10348 v -24.47592 l -21.33796,-28.24142 c 0,0 7.53105,-11.29657 11.29657,-12.55174 3.76553,-1.25517 21.67793,-6.20518 21.67793,-6.20518 l 4.05315,5.96795 5.64827,45.42347 8.15864,27.61383 34.35197,-5.83669 13.34467,-22.40473 8.78622,-26.35866 z"
     fill="#f9a826"
     id="path34"
     style="stroke-width:0.905882;fill:#ffb380;fill-opacity:1" />
  <path
     d="m 971.57761,202.72421 5.0207,3.76552 c 0,0 4.39311,35.14488 3.13798,37.65523 -1.25514,2.51036 -23.22073,5.0207 -23.84832,3.76552 -0.62758,-1.25518 15.68964,-45.18627 15.68964,-45.18627 z"
     fill="#f9a826"
     id="path36"
     style="stroke-width:0.905882;fill:#ffb380;fill-opacity:1" />
  <path
     d="m 835.39121,241.00702 c 0,0 4.39311,57.73802 3.13797,60.24837 -1.25513,2.51036 0,89.74496 0,89.74496 0,0 -8.78622,47.06903 2.51035,49.57938 11.29657,2.51034 8.78622,-52.71732 8.78622,-52.71732 l 11.29657,-72.8001 -1.25518,-72.17256 z"
     fill="#ffb9b9"
     id="path38"
     style="stroke-width:0.905882" />
  <path
     d="m 868.02574,185.15177 6.27587,41.42075 c 0,0 -5.64829,61.50354 -4.39311,74.05528 l 1.25518,3.76552 c 0,0 -2.51036,-1.25517 -3.13798,1.25517 -0.62762,2.51035 0,10.66899 0,10.66899 0,0 -3.76552,3.76553 -5.0207,24.4759 -1.25518,20.71037 -16.31726,70.28976 -10.66897,72.17255 5.64828,1.8828 39.53798,11.29657 57.73801,9.41381 18.20003,-1.88276 83.46909,-23.84831 82.8415,-29.4966 -0.62758,-5.64828 -32.00694,-85.35184 -32.00694,-85.35184 0,0 -5.64829,-9.41381 -5.64829,-10.66899 0,-1.25517 7.53105,-6.27587 5.64829,-11.29657 -1.88276,-5.02069 -11.92413,-57.73801 -11.92413,-57.73801 l 6.90346,-37.65523 -9.41381,-2.51034 -6.90346,36.40005 c 0,0 -26.98624,13.17933 -55.22766,1.25517 l -6.27587,-42.67592 z"
     fill="#2f2e41"
     id="path40"
     style="stroke-width:0.905882;fill:#f2f2f2" />
  <path
     d="m 844.80502,204.60698 -5.0207,1.88275 c 0,0 -9.41381,39.53799 -6.90346,39.53799 2.51036,0 32.63453,3.76553 32.63453,2.51035 0,-1.25517 -5.64828,-32.00694 -5.64828,-32.00694 z"
     fill="#f9a826"
     id="path42"
     style="stroke-width:0.905882;fill:#ffb380;fill-opacity:1" />
  <path
     d="m 900.03268,112.97928 c 0,0 46.44145,32.00694 58.99319,17.57244 12.55174,-14.4345 -21.96555,-26.98624 -21.96555,-26.98624 l -28.86901,-3.13797 z"
     fill="#2f2e41"
     id="path44"
     style="stroke-width:0.905882" />
  <path
     d="M 177.17301,35.428771 V 647.80524 H 703.49066 V 35.428771 Z m 28.08236,561.647059 a 9.0588235,9.0588235 0 1 1 9.05882,-9.05882 9.0588235,9.0588235 0 0 1 -9.05882,9.05882 z m 0,-44.38824 a 9.0588235,9.0588235 0 1 1 9.05882,-9.05882 9.0588235,9.0588235 0 0 1 -9.05882,9.05882 z m 0,-43.48235 a 9.0588235,9.0588235 0 1 1 9.05882,-9.05882 9.0588235,9.0588235 0 0 1 -9.05882,9.05882 z m 0,-44.38823 a 9.0588235,9.0588235 0 1 1 9.05882,-9.05883 9.0588235,9.0588235 0 0 1 -9.05882,9.05883 z m 0,-44.38824 a 9.0588235,9.0588235 0 1 1 9.05882,-9.05882 9.0588235,9.0588235 0 0 1 -9.05882,9.05882 z m 0,-43.48235 a 9.0588235,9.0588235 0 1 1 9.05882,-9.05883 9.0588235,9.0588235 0 0 1 -9.05882,9.05883 z m 0,-44.38824 a 9.0588235,9.0588235 0 1 1 9.05882,-9.05882 9.0588235,9.0588235 0 0 1 -9.05882,9.05882 z m 0,-44.38823 a 9.0588235,9.0588235 0 1 1 9.05882,-9.05883 9.0588235,9.0588235 0 0 1 -9.05882,9.05883 z m 0,-43.48236 a 9.0588235,9.0588235 0 1 1 9.05882,-9.05882 9.0588235,9.0588235 0 0 1 -9.05882,9.05882 z m 0,-44.38823 a 9.0588235,9.0588235 0 1 1 9.05882,-9.05882 9.0588235,9.0588235 0 0 1 -9.05882,9.05882 z m 0,-44.38824 a 9.0588235,9.0588235 0 1 1 9.05882,-9.05882 9.0588235,9.0588235 0 0 1 -9.05882,9.05882 z m 0,-42.57647 a 9.0588235,9.0588235 0 1 1 9.05882,-9.05882 9.0588235,9.0588235 0 0 1 -9.05882,9.05882 z"
     fill="#f2f2f2"
     id="path46"
     style="stroke-width:0.905882;opacity:0.29065041" />
  <polygon
     points="720.613,49.338 208.369,49.338 208.369,0 206.369,0 206.369,49.338 139.613,49.338 139.613,51.338 206.369,51.338 206.369,98 139.613,98 139.613,100 206.369,100 206.369,146.662 139.613,146.662 139.613,148.662 206.369,148.662 206.369,195.323 139.613,195.323 139.613,197.323 206.369,197.323 206.369,243.984 139.613,243.984 139.613,245.984 206.369,245.984 206.369,292.646 139.613,292.646 139.613,294.646 206.369,294.646 206.369,341.307 139.613,341.307 139.613,343.307 206.369,343.307 206.369,389.969 139.613,389.969 139.613,391.969 206.369,391.969 206.369,438.63 139.613,438.63 139.613,440.63 206.369,440.63 206.369,487.291 139.613,487.291 139.613,489.291 206.369,489.291 206.369,535.953 139.613,535.953 139.613,537.953 206.369,537.953 206.369,584.614 139.613,584.614 139.613,586.614 206.369,586.614 206.369,633.275 139.613,633.275 139.613,635.275 206.369,635.275 206.369,676 208.369,676 208.369,635.275 720.613,635.275 720.613,633.275 208.369,633.275 208.369,586.614 720.613,586.614 720.613,584.614 208.369,584.614 208.369,537.953 720.613,537.953 720.613,535.953 208.369,535.953 208.369,489.291 720.613,489.291 720.613,487.291 208.369,487.291 208.369,440.63 720.613,440.63 720.613,438.63 208.369,438.63 208.369,391.969 720.613,391.969 720.613,389.969 208.369,389.969 208.369,343.307 720.613,343.307 720.613,341.307 208.369,341.307 208.369,294.646 720.613,294.646 720.613,292.646 208.369,292.646 208.369,245.984 720.613,245.984 720.613,243.984 208.369,243.984 208.369,197.323 720.613,197.323 720.613,195.323 208.369,195.323 208.369,148.662 720.613,148.662 720.613,146.662 208.369,146.662 208.369,100 720.613,100 720.613,98 208.369,98 208.369,51.338 720.613,51.338 "
     fill="#3f3d56"
     opacity="0.3"
     id="polygon48"
     transform="matrix(0.90588235,0,0,0.90588235,50.700323,35.428771)"
     style="opacity:0.22764228" />
  <path
     d="m 294.74407,192.30841 a 104.64902,104.64902 0 0 1 -17.5541,11.0031 c -4.00739,1.98882 -8.45369,3.75909 -12.84903,2.92496 -4.39535,-0.83414 -8.34189,-5.32576 -6.99971,-9.59344 a 7.5848714,7.5848714 0 0 1 5.84326,-4.82451 13.42678,13.42678 0 0 1 7.75452,1.1189 22.297388,22.297388 0 0 1 10.52465,9.3384 c 1.22811,2.13866 2.1906,4.59107 4.22981,5.97803 a 12.017037,12.017037 0 0 0 5.37115,1.55438 c 4.44231,0.5553 9.00085,1.10507 13.35285,0.0549 4.352,-1.05018 8.52153,-4.06118 9.63164,-8.39824"
     fill="none"
     stroke="#3f3d56"
     stroke-miterlimit="10"
     stroke-width="1.81176"
     id="path50" />
  <path
     d="m 328.3198,171.64081 q 0.51608,19.9576 -0.55838,39.91408 l 9.4411,-1.78379 c 3.48002,-0.65751 7.43926,-1.66193 9.01191,-4.8352 1.46621,-2.95851 0.0708,-6.69317 -2.37023,-8.91666 -2.44104,-2.22349 -5.69371,-3.28461 -8.84015,-4.28587 l -5.15407,-1.64012"
     fill="none"
     stroke="#3f3d56"
     stroke-miterlimit="10"
     stroke-width="1.81176"
     id="path52" />
  <path
     d="m 379.20659,186.30907 c -3.44707,-0.47779 -6.9639,-0.93497 -10.38935,-0.32105 -3.42544,0.61393 -6.80507,2.47885 -8.38434,5.57989 -2.91704,5.7279 1.55217,12.7815 7.2158,15.82138 a 23.344498,23.344498 0 0 0 15.39139,2.31702"
     fill="none"
     stroke="#3f3d56"
     stroke-miterlimit="10"
     stroke-width="1.81176"
     id="path54" />
  <path
     d="m 303.4115,140.73913 q -13.0032,12.22627 -26.00638,0 A 35.774671,35.774671 0 0 1 266.40243,114.61817 V 35.428771 h 48.01176 v 79.189439 a 35.774671,35.774671 0 0 1 -11.00269,26.12092 z"
     fill="#f9a826"
     id="path56"
     style="stroke-width:0.905882;fill:#ffb380;fill-opacity:1;opacity:0.48170732" />
  <path
     d="m 571.86596,421.99593 c 0,74.12835 -44.06211,100.00941 -98.42411,100.00941 -1.25918,0 -2.51836,-0.0181 -3.76847,-0.0453 -2.51836,-0.0544 -5.01859,-0.17207 -7.48259,-0.34424 -49.06259,-3.46953 -87.17306,-30.68223 -87.17306,-99.61988 0,-71.32918 91.14988,-161.34671 98.01647,-168.02306 a 0.00887765,0.00887765 0 0 1 0.009,-0.009 c 0.2627,-0.2627 0.39859,-0.38953 0.39859,-0.38953 0,0 98.42411,94.30235 98.42411,168.42165 z"
     fill="#f9a826"
     id="path58"
     style="stroke-width:0.905882;fill:#ffb380;fill-opacity:1;opacity:0.48170732" />
  <path
     d="m 469.85457,510.6637 35.99976,-50.29458 -36.09035,55.82047 -0.0906,5.77047 c -2.51835,-0.0544 -5.01858,-0.17207 -7.48258,-0.34424 l 3.87717,-74.15553 -0.0272,-0.57976 0.0634,-0.0996 0.37141,-7.01153 -36.18089,-55.95635 36.28959,50.70223 0.0906,1.48565 2.926,-56.02882 -30.97211,-57.82247 31.35258,47.99364 3.05283,-116.17035 0.009,-0.39859 v 0.38953 l -0.5073,91.60282 30.83624,-36.31682 -30.96312,44.20711 -0.81529,50.16776 28.798,-48.14765 -28.91576,55.53059 -0.45295,27.89212 41.78836,-67.01722 -41.95141,76.74635 z"
     fill="#3f3d56"
     id="path60"
     style="stroke-width:0.905882;fill:#ececec" />
  <metadata
     id="metadata883">
    <rdf:RDF>
      <cc:Work
         rdf:about="">
        <dc:title>learning</dc:title>
      </cc:Work>
    </rdf:RDF>
  </metadata>
</svg>
